<svg xmlns="http://www.w3.org/2000/svg" viewBox="0 0 400 200" fill="none">
  <rect width="400" height="200" fill="#1a1a1a"/>
  <!-- Incline bench -->
  <rect x="140" y="100" width="120" height="10" rx="4" fill="#333" transform="rotate(-25 200 105)"/>
  <rect x="155" y="150" width="8" height="32" rx="2" fill="#444"/>
  <rect x="280" y="130" width="8" height="52" rx="2" fill="#444"/>
  <!-- Dumbbells -->
  <rect x="130" y="60" width="30" height="8" rx="4" fill="#ff6b1a"/>
  <rect x="240" y="60" width="30" height="8" rx="4" fill="#ff6b1a"/>
  <rect x="125" y="55" width="10" height="18" rx="3" fill="#ff6b1a" opacity="0.6"/>
  <rect x="150" y="55" width="10" height="18" rx="3" fill="#ff6b1a" opacity="0.6"/>
  <rect x="235" y="55" width="10" height="18" rx="3" fill="#ff6b1a" opacity="0.6"/>
  <rect x="260" y="55" width="10" height="18" rx="3" fill="#ff6b1a" opacity="0.6"/>
  <!-- Arms -->
  <line x1="175" y1="100" x2="145" y2="68" stroke="#ff6b1a" stroke-width="4" stroke-linecap="round" opacity="0.4"/>
  <line x1="225" y1="100" x2="255" y2="68" stroke="#ff6b1a" stroke-width="4" stroke-linecap="round" opacity="0.4"/>
  <text x="200" y="30" text-anchor="middle" fill="#ff6b1a" font-family="sans-serif" font-size="14" font-weight="bold">INCLINE DB PRESS</text>
  <text x="200" y="48" text-anchor="middle" fill="#888" font-family="sans-serif" font-size="11">Upper Chest · Shoulders</text>
</svg>
