<svg xmlns="http://www.w3.org/2000/svg" viewBox="0 0 400 200" fill="none">
  <rect width="400" height="200" fill="#1a1a1a"/>
  <!-- Figure -->
  <ellipse cx="200" cy="80" rx="12" ry="12" fill="#ff6b1a" opacity="0.3"/>
  <rect x="185" y="92" width="30" height="50" rx="6" fill="#ff6b1a" opacity="0.15"/>
  <!-- Arms up -->
  <line x1="185" y1="100" x2="150" y2="55" stroke="#ff6b1a" stroke-width="4" stroke-linecap="round" opacity="0.5"/>
  <line x1="215" y1="100" x2="250" y2="55" stroke="#ff6b1a" stroke-width="4" stroke-linecap="round" opacity="0.5"/>
  <!-- Dumbbells -->
  <rect x="133" y="47" width="34" height="8" rx="4" fill="#ff6b1a"/>
  <rect x="233" y="47" width="34" height="8" rx="4" fill="#ff6b1a"/>
  <rect x="128" y="42" width="10" height="18" rx="3" fill="#ff6b1a" opacity="0.6"/>
  <rect x="157" y="42" width="10" height="18" rx="3" fill="#ff6b1a" opacity="0.6"/>
  <rect x="228" y="42" width="10" height="18" rx="3" fill="#ff6b1a" opacity="0.6"/>
  <rect x="257" y="42" width="10" height="18" rx="3" fill="#ff6b1a" opacity="0.6"/>
  <!-- Muscle highlight -->
  <ellipse cx="170" cy="90" rx="8" ry="14" fill="#ff6b1a" opacity="0.1"/>
  <ellipse cx="230" cy="90" rx="8" ry="14" fill="#ff6b1a" opacity="0.1"/>
  <text x="200" y="175" text-anchor="middle" fill="#ff6b1a" font-family="sans-serif" font-size="14" font-weight="bold">SHOULDER PRESS</text>
  <text x="200" y="192" text-anchor="middle" fill="#888" font-family="sans-serif" font-size="11">Anterior &amp; Medial Delts</text>
</svg>
